<svg xmlns="http://www.w3.org/2000/svg" viewBox="0 0 400 400" id="Being-Productive-2--Streamline-Barcelona.svg" height="400" width="400"><desc>Being Productive 2 Streamline Illustration: https://streamlinehq.com</desc><defs></defs><path d="m70.576 223.304 1 0.08a4.302 4.302 0 0 1 0.122 -0.504 7.88 7.88 0 0 1 1.342 -2.566 21.938 21.938 0 0 1 5.75 -4.938c1.504 -0.968 3.06 -1.862 4.65 -2.696a36.4 36.4 0 0 1 -10.168 -8.906 54.362 54.362 0 0 1 -9.872 -22.3c-0.2 -0.9 1.188 -1.284 1.384 -0.382a62.338 62.338 0 0 0 4.154 12.8 39.152 39.152 0 0 0 13.962 16.8c0.674 0.434 1.372 0.832 2.078 1.212a132.062 132.062 0 0 1 13.052 -5.43c2.966 -1.09 5.96 -2.108 8.964 -3.09a115.448 115.448 0 0 1 5.866 -22.152 32.2 32.2 0 0 1 -12.508 0.334c-6.882 -1.496 -11.44 -7.4 -13.14 -13.966 -2.102 -8.124 0.212 -16.562 2.386 -24.412a0.718 0.718 0 0 1 1.384 0.384 82.672 82.672 0 0 0 -2.954 13.546c-0.682 6.662 0.48 13.914 5.288 18.92a14.74 14.74 0 0 0 8.868 4.4 36.786 36.786 0 0 0 11.6 -0.828 0.474 0.474 0 0 1 0.092 0 6.186 6.186 0 0 1 1.516 -0.34q1.152 -0.254 2.29 -0.546a66.936 66.936 0 0 0 8.918 -2.966c2.934 -1.21 5.718 -2.716 8.55 -4.142 5.054 -2.546 10.974 -5.072 16.65 -3a13.48 13.48 0 0 1 3.488 1.918c1.962 -4.8 3 -7.938 3 -7.938 -10.418 -3.418 -12.668 -14.504 -15.702 -20.028 -2.27 -4.132 -3.766 -8.552 -6.6 -12.45 -1.568 -2.152 -5.384 -5.342 -12.968 -7.654a7.118 7.118 0 0 1 -0.644 1.87 12.288 12.288 0 0 1 -6.914 4.5 26.426 26.426 0 0 1 -12.052 0.468c-3.94 -0.878 -8.698 -3.6 -9.472 -7.05a15.4 15.4 0 0 1 -0.292 -2.422c-8.456 1.12 -16.91 6.42 -22.478 11.49a82.944 82.944 0 0 0 -14.582 18.914A130.342 130.342 0 0 0 43.2 178.066a73.342 73.342 0 0 0 -3.15 14.266 12.702 12.702 0 0 1 1.38 0.068c0.912 0.094 0.92 1.534 0 1.436a11.98 11.98 0 0 0 -1.516 -0.058c-1.784 22.31 12.49 30.894 29.944 32.714v-2.47a0.722 0.722 0 0 1 0.718 -0.718zm60.338 -68.834a69.474 69.474 0 0 1 2.914 16.048c0.058 0.924 -1.38 0.918 -1.438 0a67.746 67.746 0 0 0 -2.862 -15.666c-0.272 -0.886 1.116 -1.264 1.386 -0.382z" fill="#dcbeff" stroke-width="1"></path><path d="M168.984 183.224c4.582 -1.43 8.244 -4.944 11.862 -7.958v-0.062a4.424 4.424 0 0 0 0.166 -2.8c-0.55 -0.954 -1.454 1.162 -1.654 1.534q-0.714 1.338 -1.506 2.634a5.562 5.562 0 0 1 -1.552 1.85 2.308 2.308 0 0 1 -3.23 -0.476 2.446 2.446 0 0 1 -0.312 -0.578 6.012 6.012 0 0 1 0.492 -4.67c0.4 -0.836 1.634 -0.106 1.24 0.726a5.282 5.282 0 0 0 -0.56 2.768c0.094 0.83 0.618 1.64 1.54 1.064a6.366 6.366 0 0 0 1.684 -2.322c0.48 -0.82 0.928 -1.654 1.372 -2.494 0.6 -1.136 2.028 -2.472 3.31 -1.334 1.07 0.95 0.8 2.848 0.478 4.156a0.662 0.662 0 0 1 0.014 0.468 22.416 22.416 0 0 0 -0.816 3.446 13.744 13.744 0 0 1 1.108 -0.876 13.556 13.556 0 0 1 2.9 -1.374q1.662 -0.666 3.33 -1.32a529.998 529.998 0 0 1 10.412 -3.942 13.578 13.578 0 0 0 -1.344 -5.19 11.524 11.524 0 0 0 -6.714 -5.9 8.856 8.856 0 0 0 -4.64 -0.236 33.03 33.03 0 0 0 -5.258 2.024c-6.4 2.68 -13.658 4.452 -20.324 1.8 -1.14 2.84 -2.278 5.718 -3.284 8.64a19 19 0 0 1 3.628 6.55 18.032 18.032 0 0 1 0.734 4.762 19.914 19.914 0 0 0 6.924 -0.89zM103.4 129.294a25.656 25.656 0 0 0 12.052 -0.468 12.296 12.296 0 0 0 6.914 -4.5 7.094 7.094 0 0 0 0.644 -1.87 48.136 48.136 0 0 0 0.418 -9.612 25.694 25.694 0 0 1 -14.918 -2.722 18.092 18.092 0 0 1 -9.468 -11.122 8.956 8.956 0 0 1 -3.354 0.922 106.574 106.574 0 0 0 -2.052 19.896 15.4 15.4 0 0 0 0.292 2.422c0.774 3.454 5.52 6.23 9.472 7.054z" fill="#ffceb6" stroke-width="1"></path><path d="M105.726 215.142A134.5 134.5 0 0 1 109.214 193.6a108.112 108.112 0 0 1 2.702 -9.366q0.414 -1.212 0.856 -2.4a10.248 10.248 0 0 1 0.732 -1.888 0.908 0.908 0 0 1 0.362 -0.316 0.464 0.464 0 0 0 -0.092 0 36.782 36.782 0 0 1 -11.6 0.828 14.74 14.74 0 0 1 -8.868 -4.4c-4.8 -5 -5.97 -12.256 -5.288 -18.92a82.718 82.718 0 0 1 2.954 -13.546 0.718 0.718 0 0 0 -1.384 -0.384c-2.174 7.85 -4.488 16.288 -2.386 24.412 1.702 6.576 6.258 12.472 13.14 13.966a32.2 32.2 0 0 0 12.508 -0.334A115.672 115.672 0 0 0 107 203.38q-0.914 5.574 -1.36 11.2a32.182 32.182 0 0 1 -12.612 0.25 28.42 28.42 0 0 1 -8.044 -2.926c-0.704 -0.38 -1.4 -0.778 -2.078 -1.212a39.154 39.154 0 0 1 -13.962 -16.8 62.056 62.056 0 0 1 -4.154 -12.8c-0.2 -0.902 -1.582 -0.52 -1.384 0.382a54.4 54.4 0 0 0 9.862 22.3 36.364 36.364 0 0 0 10.168 8.906 29.876 29.876 0 0 0 8.164 3.304 33.636 33.636 0 0 0 14.894 -0.118l0.07 -0.028a0.708 0.708 0 0 1 -0.82 -0.578 0.576 0.576 0 0 1 -0.018 -0.118z" fill="#9528e9" stroke-width="1"></path><path d="M145.016 169.47a33.01 33.01 0 0 0 -10.044 3.844 96 96 0 0 1 -9.91 4.584 68.432 68.432 0 0 1 -10.4 2.988 74.936 74.936 0 0 0 -2.746 8.162c-0.8 2.784 -1.5 5.6 -2.102 8.436a134.57 134.57 0 0 0 -2.55 16.708 44.624 44.624 0 0 0 7.678 -2.718c9.438 -4.376 17.15 -11.588 24.678 -18.6 0.414 -0.39 1.292 -0.15 1.226 0.506a14.454 14.454 0 0 0 0.882 5.92 24.128 24.128 0 0 0 1.084 2.768c0.262 0.554 0.372 0.948 1.07 0.616a3.906 3.906 0 0 0 0.788 -0.576c2.388 -2.056 2.2 -5.62 2.142 -8.484 -0.016 -0.8 1.29 -1 1.412 -0.2a19.32 19.32 0 0 0 1.76 5.74c0.242 0.492 0.8 2.056 1.506 1.824 0.574 -0.19 0.936 -1.29 1.152 -1.8a26.932 26.932 0 0 0 2.114 -8.844c0.038 -0.766 1.298 -1.026 1.4 -0.2l0.518 3.8a6.552 6.552 0 0 0 0.6 2.532c0.676 1.102 1.748 0.188 2.2 -0.626a7.016 7.016 0 0 0 0.658 -3.288c0.138 -4.346 1.11 -8.588 -0.2 -12.854a16.16 16.16 0 0 0 -5.686 -8.2 12.058 12.058 0 0 0 -9.23 -2.038zm-0.372 21.2c-0.156 0.91 -1.534 0.522 -1.386 -0.382a5.4 5.4 0 0 0 -0.476 -3.24c-0.4 -0.83 0.84 -1.558 1.24 -0.726a7.166 7.166 0 0 1 0.622 4.338zm10.102 -12.636a4.678 4.678 0 0 1 2.616 2.316c0.4 0.83 -0.836 1.558 -1.24 0.726a3.166 3.166 0 0 0 -1.758 -1.656c-0.86 -0.33 -0.49 -1.71 0.382 -1.396zm-5.046 4.132a9.244 9.244 0 0 1 2.148 3.932 0.72 0.72 0 0 1 -1.386 0.38 7.674 7.674 0 0 0 -1.778 -3.298c-0.622 -0.68 0.388 -1.696 1.016 -1.014zM100.224 97.75a12.244 12.244 0 0 0 3.4 6.768 21.97 21.97 0 0 0 7.492 5.264 24.04 24.04 0 0 0 15.976 0.866 14.36 14.36 0 0 0 9.012 -10.412 29.352 29.352 0 0 0 0.362 -14.124c-0.158 -0.72 -0.362 -1.43 -0.588 -2.132a0.584 0.584 0 0 1 -0.566 0.266 7.63 7.63 0 0 0 -4.77 1.184c-0.784 0.498 -1.504 -0.746 -0.726 -1.24a8.94 8.94 0 0 1 5.496 -1.382 0.89 0.89 0 0 1 0.186 0.052 14.8 14.8 0 0 0 -6.444 -7.924 24.326 24.326 0 0 0 -9.344 -2.21 20.718 20.718 0 0 0 -8.648 0.644 12.424 12.424 0 0 0 -5.2 3.62 25.554 25.554 0 0 0 -5.406 13.21 0.724 0.724 0 0 1 -1.2 0.318 5.538 5.538 0 0 0 -5.742 -2.152 6.46 6.46 0 0 0 -3.668 4.73 4.466 4.466 0 0 0 0.538 3.63 4.684 4.684 0 0 0 2.538 1.6 7.89 7.89 0 0 0 6.246 -1 0.724 0.724 0 0 1 0.986 0.264 0.736 0.736 0 0 1 0.07 0.16zm33.732 -7.176c0.33 -0.856 1.718 -0.482 1.386 0.382a5.974 5.974 0 0 0 -0.17 3.97 0.718 0.718 0 0 1 -1.384 0.382 7.276 7.276 0 0 1 0.168 -4.734zm-20.662 3.732a0.72 0.72 0 0 1 -1.438 0v-3.6a0.72 0.72 0 0 1 1.438 0zm3.8 1.6a22.2 22.2 0 0 0 13.338 0.344 0.368 0.368 0 0 1 0.082 -0.01 0.6 0.6 0 0 1 0.69 0.314 0.678 0.678 0 0 1 0.11 0.578 14.162 14.162 0 0 1 -2.492 5.624 4.954 4.954 0 0 1 -4.336 2.736A7.504 7.504 0 0 1 119.2 102.4a15.284 15.284 0 0 1 -3 -5.624 0.728 0.728 0 0 1 0.52 -0.884 0.748 0.748 0 0 1 0.368 0.008zm-8.346 -10.748a7.138 7.138 0 0 1 4.838 -3.518c0.904 -0.182 1.288 1.2 0.382 1.384a5.812 5.812 0 0 0 -3.98 2.86 0.718 0.718 0 0 1 -1.24 -0.726zm-11.268 8.892a10.83 10.83 0 0 0 -3.98 -0.636 0.72 0.72 0 0 1 0 -1.438 11.94 11.94 0 0 1 4.362 0.688c0.866 0.31 0.49 1.698 -0.382 1.386z" fill="#ffceb6" stroke-width="1"></path><path d="M141.692 66.338c-1.956 -1.908 -5.66 -1.344 -7.912 -0.4a7.968 7.968 0 0 1 -2.088 0.938c-0.744 0.056 -1.024 -0.744 -1.182 -1.348 -0.4 -1.542 -0.448 -3.162 -0.8 -4.718 -0.548 -2.442 -2.118 -5.13 -4.858 -5.42a7.928 7.928 0 0 0 -4.346 1.216c-1.21 0.616 -2.428 1.218 -3.628 1.854a20.952 20.952 0 0 0 -5.968 4.298c-0.212 0.222 -0.382 0.476 -0.576 0.712 -0.162 -1.91 -1.12 -3.672 -3.316 -3.722 -3.182 -0.078 -4.904 3.816 -6.034 6.23a128.096 128.096 0 0 0 -6.74 18.638q-0.318 1.104 -0.626 2.21a7.178 7.178 0 0 0 -3.818 2.82 8.114 8.114 0 0 0 -1.34 6.342 5.688 5.688 0 0 0 4.528 3.824 9.884 9.884 0 0 0 2.704 0.114 9.014 9.014 0 0 0 3.354 -0.922 18.086 18.086 0 0 0 9.468 11.118 25.696 25.696 0 0 0 14.918 2.722c0.64 -0.072 1.274 -0.158 1.902 -0.274a14.152 14.152 0 0 0 7.434 -3.612 16.326 16.326 0 0 0 4 -6.184 29.734 29.734 0 0 0 1.442 -15.126 23.188 23.188 0 0 0 -2.872 -8.39 146.404 146.404 0 0 0 5.6 -7.632c1.05 -1.544 2.43 -3.656 0.754 -5.288zm-6.184 16.522a0.762 0.762 0 0 1 0.446 0.982 0.8 0.8 0 0 1 -0.066 0.138c0.224 0.702 0.428 1.414 0.588 2.132a29.328 29.328 0 0 1 -0.362 14.124 14.36 14.36 0 0 1 -9.012 10.412 24.054 24.054 0 0 1 -15.976 -0.866 22.854 22.854 0 0 1 -7.492 -5.264 12.532 12.532 0 0 1 -3.4 -6.768 0.72 0.72 0 0 0 -0.892 -0.496 0.648 0.648 0 0 0 -0.164 0.068 8.036 8.036 0 0 1 -6.246 1 4.68 4.68 0 0 1 -2.538 -1.6 4.464 4.464 0 0 1 -0.538 -3.63 6.47 6.47 0 0 1 3.668 -4.73 5.538 5.538 0 0 1 5.742 2.152 0.724 0.724 0 0 0 1.2 -0.318 24.906 24.906 0 0 1 5.418 -13.21 12.056 12.056 0 0 1 5.2 -3.62 20.754 20.754 0 0 1 8.648 -0.644 24.326 24.326 0 0 1 9.344 2.21 14.8 14.8 0 0 1 6.432 7.928z" fill="#000000" stroke-width="1"></path><path d="M111.856 90.714v3.6a0.72 0.72 0 0 0 1.438 0v-3.6a0.72 0.72 0 0 0 -1.438 0zm23.316 4.212a5.974 5.974 0 0 1 0.17 -3.97c0.332 -0.862 -1.056 -1.238 -1.386 -0.382a7.29 7.29 0 0 0 -0.168 4.734 0.718 0.718 0 0 0 1.384 -0.382zm-10.692 10.56a4.954 4.954 0 0 0 4.336 -2.736 14.148 14.148 0 0 0 2.492 -5.624 0.678 0.678 0 0 0 -0.11 -0.578 0.6 0.6 0 0 0 -0.69 -0.314 0.368 0.368 0 0 0 -0.082 0.01 22.2 22.2 0 0 1 -13.338 -0.344 0.726 0.726 0 0 0 -0.884 0.52 0.702 0.702 0 0 0 0 0.364A15.268 15.268 0 0 0 119.2 102.4a7.502 7.502 0 0 0 5.28 3.086zm5.154 -7.53a11.698 11.698 0 0 1 -1.656 3.412c-0.822 1.366 -1.71 2.742 -3.498 2.682a6.4 6.4 0 0 1 -4.41 -2.85A14.494 14.494 0 0 1 118 97.642a23.6 23.6 0 0 0 11.634 0.314zm-19.652 -12.078a5.952 5.952 0 0 1 3.98 -2.86c0.906 -0.18 0.522 -1.564 -0.382 -1.384a7.2 7.2 0 0 0 -4.838 3.518 0.718 0.718 0 0 0 0.292 0.974 0.71 0.71 0 0 0 0.948 -0.248zm19.844 -1.678c-0.778 0.496 -0.058 1.738 0.726 1.24a7.626 7.626 0 0 1 4.77 -1.184 0.582 0.582 0 0 0 0.566 -0.266 0.762 0.762 0 0 0 -0.244 -1.052 1.078 1.078 0 0 0 -0.136 -0.068 0.856 0.856 0 0 0 -0.186 -0.052 8.956 8.956 0 0 0 -5.496 1.382z" fill="#000000" stroke-width="1"></path><path d="M132.39 170.518c0.058 0.918 1.496 0.924 1.438 0a69.58 69.58 0 0 0 -2.914 -16.048c-0.27 -0.88 -1.658 -0.506 -1.386 0.382a67.728 67.728 0 0 1 2.862 15.666z" fill="#9528e9" stroke-width="1"></path><path d="M277.576 193.342c-12.4 4.834 -24.94 9.296 -37.536 13.584 -12.912 4.4 -64.19 20.8 -67.24 21.776a9.374 9.374 0 0 1 -3.152 0.35c-0.066 0.48 -0.114 0.96 -0.166 1.44a63.058 63.058 0 0 0 -0.37 8.6c0.014 0.472 0.036 0.942 0.058 1.414a15.84 15.84 0 0 0 2.812 -0.308c1.72 -0.386 3.426 -0.978 5.12 -1.468q9.85 -2.852 19.63 -5.932 19.488 -6.144 38.65 -13.27 19.108 -7.124 37.8 -15.274 2.352 -1.026 4.698 -2.064a0.566 0.566 0 0 0 0.358 -0.67l0.238 -7.488a0.722 0.722 0 0 0 -0.728 -0.716 0.684 0.684 0 0 0 -0.172 0.026zM168.222 229c-0.252 -0.012 -34.966 -1.484 -49.376 -2.318 -14.318 -0.834 -47.94 -3.352 -48.27 -3.378a0.724 0.724 0 0 0 -0.718 0.718v5.852a0.738 0.738 0 0 0 0.718 0.718c14.4 1.824 28.81 3.542 43.2 5.5 14.1 1.922 28.2 4.16 42.458 4.568 3.576 0.102 7.154 0.088 10.726 -0.076 0.258 -0.014 0.522 -0.02 0.786 -0.028 -0.02 -0.472 -0.042 -0.944 -0.054 -1.414a65.04 65.04 0 0 1 0.374 -8.716c0.042 -0.476 0.094 -0.952 0.156 -1.426z" fill="#b3acea" stroke-width="1"></path><path d="M28.092 185.836a91.14 91.14 0 0 1 16.166 -31.388c0.576 -0.712 -0.436 -1.736 -1.016 -1.016a89.56 89.56 0 0 0 -13.986 24.282q-1.452 3.8 -2.548 7.74a0.718 0.718 0 0 0 1.384 0.382zm8.918 -33.404a61.718 61.718 0 0 0 -14.524 29.078c-0.178 0.902 1.2 1.288 1.386 0.382a60.278 60.278 0 0 1 14.154 -28.444c0.616 -0.686 -0.398 -1.706 -1.016 -1.016zm125.69 -17.158a97.668 97.668 0 0 0 5.614 15.624c0.374 0.84 1.614 0.112 1.238 -0.726a106.168 106.168 0 0 1 -5.466 -15.28 0.72 0.72 0 0 0 -1.386 0.382zm13.26 -2.074a140.982 140.982 0 0 0 -1.82 17.78c-0.036 0.926 1.4 0.924 1.436 0a137.95 137.95 0 0 1 1.77 -17.4c0.15 -0.908 -1.234 -1.298 -1.386 -0.38zm11.214 1.144q-3.312 6.726 -6.628 13.448c-0.4 0.828 0.832 1.556 1.24 0.726l6.628 -13.45c0.408 -0.824 -0.832 -1.554 -1.24 -0.724zM136.102 212.8q-3.902 4.898 -7.8 9.8c-0.57 0.714 0.44 1.738 1.016 1.014l7.8 -9.8c0.57 -0.722 -0.44 -1.746 -1.016 -1.014zm2.55 12.538a78.458 78.458 0 0 0 3.062 -11.898c0.16 -0.906 -1.224 -1.294 -1.384 -0.382a78.466 78.466 0 0 1 -3.064 11.898c-0.3 0.876 1.088 1.244 1.386 0.382zm6.428 -10.692a14.038 14.038 0 0 0 1.94 9.754c0.49 0.782 1.734 0.06 1.24 -0.724a12.472 12.472 0 0 1 -1.8 -8.648c0.152 -0.904 -1.23 -1.292 -1.38 -0.382z" fill="#000000" stroke-width="1"></path><path d="M186.876 177.92a17.144 17.144 0 0 0 -3.33 1.48 12.636 12.636 0 0 0 -3.924 4.374 16.4 16.4 0 0 0 -1.944 5.8 7.922 7.922 0 0 0 0.022 1.934 6.916 6.916 0 0 1 0.294 1.7c-0.07 0.424 -0.51 0.726 -0.8 1 -0.346 0.332 -0.698 0.656 -1.06 0.974a51.32 51.32 0 0 1 -10.272 7.056 31.878 31.878 0 0 1 -10.682 3.638c-0.356 2.83 -0.38 5.692 -0.704 8.528 6.23 0.568 12.35 2.068 18.6 2.37a33.45 33.45 0 0 0 8.6 -0.6q4.126 -0.872 8.21 -1.93 8.318 -2.142 16.456 -4.94c5.338 -1.834 10.56 -3.926 15.748 -6.142 4.77 -2.04 9.59 -3.948 14.356 -6l0.988 -11.472a10.02 10.02 0 0 1 0.506 -3.522 17.784 17.784 0 0 0 0.956 -2.374 39.498 39.498 0 0 0 1.942 -11.692 21.366 21.366 0 0 0 -0.098 -2.654 7.714 7.714 0 0 0 -1.2 -3.31c-0.412 -0.68 -0.722 -1.742 -1.668 -1.498 -1.2 0.308 -2.386 0.672 -3.576 1.014q-7.4 2.134 -14.724 4.496 -14.682 4.73 -29.074 10.328l-3.622 1.442zm-3.24 8.226a0.72 0.72 0 0 1 0.81 0.33 6.734 6.734 0 0 1 0.454 4.642 0.72 0.72 0 0 1 -1.386 -0.382 5.2 5.2 0 0 0 -0.048 -2.826 1.416 1.416 0 0 0 -0.164 1.64 0.72 0.72 0 0 1 -1.242 0.724 2.852 2.852 0 0 1 1.05 -3.892 2.762 2.762 0 0 1 0.526 -0.236zm-1.304 17.302a27.942 27.942 0 0 0 -0.782 8.582c0.062 0.924 -1.376 0.918 -1.438 0a28.674 28.674 0 0 1 0.834 -8.964 0.72 0.72 0 0 1 1.386 0.382zm50.854 -20.374c0.852 -0.358 1.22 1.03 0.38 1.386 -4.63 1.952 -9.256 3.906 -13.9 5.818 -7.576 3.118 -15.2 6.09 -22.956 8.748 -2.094 0.72 -10.774 3.512 -11.346 3.688a9.316 9.316 0 0 1 -1.46 0.446c-0.8 0.096 -1.574 -0.92 -2.038 -1.48a7.87 7.87 0 0 1 -1.066 -1.68 28.088 28.088 0 0 1 -1.46 -4.816 0.72 0.72 0 0 1 1.386 -0.382 33.962 33.962 0 0 0 1.174 4.146 7.2 7.2 0 0 0 1.986 2.706q5.736 -1.748 11.422 -3.67c12.86 -4.364 25.368 -9.638 37.878 -14.91zm-44.49 14.8c-0.614 0.694 -1.628 -0.328 -1.016 -1.016a14.532 14.532 0 0 0 3.026 -13.358 8.326 8.326 0 0 0 -2.572 -4.472c-0.728 -0.552 -0.012 -1.8 0.726 -1.24 2.94 2.226 3.924 6.6 3.8 10.12a15.906 15.906 0 0 1 -3.964 9.962z" fill="#fff15c" stroke-width="1"></path><path d="M305.292 92.57c-0.624 -0.162 -1.25 -0.33 -1.882 -0.48a41.616 41.616 0 0 0 -5.764 -0.964 30.378 30.378 0 0 0 -5.924 -0.016c-0.56 0.056 -0.8 -0.552 -0.642 -1a56.6 56.6 0 0 0 -9.958 2.426 122.158 122.158 0 0 0 -36.8 20.66 141.018 141.018 0 0 0 -29.154 32 128.826 128.826 0 0 0 -11.34 21.15c-0.214 0.508 0.4 1.04 0.884 0.882l28.536 -9.312c1.836 -0.572 4.654 -9.14 19.378 -22.412a185.164 185.164 0 0 1 27.864 -20.284c5 -3.064 10.07 -5.97 15.14 -8.896 5.416 -3.122 10.958 -6.4 17.12 -7.8a24.162 24.162 0 0 1 4.25 -0.56 34.876 34.876 0 0 0 -11.708 -5.394z" fill="#ff9f48" stroke-width="1"></path><path d="M183.302 189.55a1.428 1.428 0 0 1 0.164 -1.64 5.2 5.2 0 0 1 0.048 2.826 0.72 0.72 0 0 0 1.386 0.382 6.732 6.732 0 0 0 -0.454 -4.642 0.716 0.716 0 0 0 -0.81 -0.33 2.85 2.85 0 0 0 -1.81 3.6 2.756 2.756 0 0 0 0.234 0.526 0.72 0.72 0 0 0 1.242 -0.724zm5.558 -11.766c-0.736 -0.558 -1.456 0.688 -0.726 1.24a8.322 8.322 0 0 1 2.572 4.472 14.53 14.53 0 0 1 -3.026 13.358c-0.612 0.69 0.4 1.71 1.016 1.016a15.932 15.932 0 0 0 3.956 -9.966c0.132 -3.516 -0.852 -7.89 -3.792 -10.12zm-7.914 25.282a28.62 28.62 0 0 0 -0.834 8.964c0.062 0.918 1.5 0.924 1.438 0a27.264 27.264 0 0 1 0.782 -8.582 0.72 0.72 0 0 0 -1.386 -0.382z" fill="#000000" stroke-width="1"></path><path d="M181.9 198.954a34.694 34.694 0 0 1 -1.174 -4.146 0.72 0.72 0 0 0 -1.386 0.382A28.322 28.322 0 0 0 180.8 200a7.92 7.92 0 0 0 1.066 1.674c0.464 0.562 1.242 1.576 2.038 1.48a9.252 9.252 0 0 0 1.46 -0.446c0.574 -0.176 9.254 -2.968 11.346 -3.688 7.748 -2.658 15.38 -5.63 22.956 -8.748 4.644 -1.912 9.272 -3.866 13.9 -5.818 0.84 -0.354 0.47 -1.744 -0.38 -1.386 -12.508 5.272 -25.018 10.548 -37.878 14.916q-5.68 1.936 -11.422 3.67a7.2 7.2 0 0 1 -1.986 -2.7z" fill="#000000" stroke-width="1"></path><path d="M379.126 297.254a8.762 8.762 0 0 0 -1.336 -1.6c-0.506 -0.474 -1.454 -1.438 -2.184 -1.45a58.418 58.418 0 0 1 -17.372 4.302 1.916 1.916 0 0 0 -1.156 0.28c-0.384 0.25 -0.754 0.522 -1.136 0.78 -0.832 0.556 -1.67 1.096 -2.524 1.618 -7.05 4.352 -14.654 7.908 -20.39 14.058a0.58 0.58 0 0 0 -0.142 0.814 0.564 0.564 0 0 0 0.126 0.132 0.656 0.656 0 0 0 0.91 0.176 0.67 0.67 0 0 0 0.12 -0.106c5.262 -4.1 11.848 -6.096 18.254 -7.572 6.584 -1.514 13.292 -2.444 19.84 -4.112 2.62 -0.666 5.858 -1.542 7.294 -4.1a2.898 2.898 0 0 0 -0.304 -3.22z" fill="#ff9f48" stroke-width="1"></path><path d="M328.33 177.154a0.67 0.67 0 0 0 0.498 -0.8 0.834 0.834 0 0 0 -0.026 -0.084c-0.17 -0.972 -1.306 -0.356 -2.95 0.128a19.732 19.732 0 0 1 -5.074 0.8 6.96 6.96 0 0 1 -3.886 -0.93 4.258 4.258 0 0 1 -1.73 -4.176 26.05 26.05 0 0 1 3.2 -8.628q1.96 -4.034 4.164 -7.948a145.768 145.768 0 0 1 9.67 -14.934c3.312 -4.486 7.074 -8.644 10.184 -13.276a26.118 26.118 0 0 0 5.12 -14.472 23.538 23.538 0 0 0 -5.904 -14.856 37.178 37.178 0 0 0 -11.758 -9.8c-9.502 -4.2 -23.942 -1.822 -34.056 0.6 -1.414 0.308 -2.828 0.62 -4.242 0.926a0.6 0.6 0 0 0 -0.452 0.42c-0.156 0.438 0.082 1.048 0.642 1a30.378 30.378 0 0 1 5.924 0.016 41.616 41.616 0 0 1 5.764 0.964c0.632 0.15 1.26 0.308 1.882 0.48a33.436 33.436 0 0 1 11.706 5.4c0.114 0.088 0.234 0.168 0.344 0.258a18.334 18.334 0 0 1 5.768 12.684 43.416 43.416 0 0 1 -2.24 17.128 56.42 56.42 0 0 1 -7.966 15.71c-3.168 4.424 -6.8 8.482 -10.254 12.682a69.812 69.812 0 0 0 -9.06 13.302c-2.052 4.18 -4.122 10 -1.11 14.26 3.274 4.634 9.584 3.91 14.162 1.972 8.646 -3.684 4.334 -3.124 21.68 -8.826zm-33.62 7.184c-4.252 -3.638 -1.724 -10.242 0.348 -14.334a72.244 72.244 0 0 1 9.182 -13.25c3.462 -4.182 7.068 -8.256 10.2 -12.698a57.328 57.328 0 0 0 7.772 -15.496 45.4 45.4 0 0 0 2.4 -16.856c-1.46 -21.066 -25.8 -21.93 -26.28 -21.954 -0.096 0 -0.2 -0.01 -0.288 -0.02 9.4 -2.06 19.24 -3.854 28.568 -1.236 5.118 1.438 9.28 5.226 12.748 9.102a23.388 23.388 0 0 1 6.69 14.828 25.278 25.278 0 0 1 -5.356 14.8c-3.164 4.572 -6.892 8.724 -10.172 13.212a145.772 145.772 0 0 0 -9.666 15.108q-2.148 3.86 -4.056 7.844a27.534 27.534 0 0 0 -3.026 8.266 6 6 0 0 0 1.626 5.252 6.814 6.814 0 0 0 4.056 1.664 114.352 114.352 0 0 0 -8.832 3.912 33.096 33.096 0 0 1 -8.636 3.45 8.956 8.956 0 0 1 -7.278 -1.594zm31.41 63.3c0.956 -0.8 1.924 -1.6 2.902 -2.374a0.562 0.562 0 0 0 0.292 -0.284 0.544 0.544 0 0 0 0.126 -0.4c1.554 -8.23 6.304 -15.566 11.296 -22.132 12.6 -16.6 30.972 -32.154 33.128 -44a10.84 10.84 0 0 0 -0.57 -6.658 5.042 5.042 0 0 0 -5.284 -2.8c-6.2 0.464 -31.764 4.674 -37.942 6.258a0.72 0.72 0 0 0 0.382 1.386c7.448 -1.71 19.4 -3.118 18.844 4.504a19.326 19.326 0 0 1 -1.74 7.53 51.708 51.708 0 0 1 -8.86 12.71c-3.6 4.156 -7.164 8.334 -10.578 12.642a168.622 168.622 0 0 0 -18.1 27.338c-2.5 4.822 -8.146 16.754 -7.64 22.4a4.6 4.6 0 0 0 3.658 3.892 3.636 3.636 0 0 0 4.142 -1.672c3.26 -6.516 10.438 -13.718 15.944 -18.34zm-17.06 17.252c-0.326 0.752 -0.6 1.23 -1.482 1.4a3.264 3.264 0 0 1 -3.784 -2.644 2.68 2.68 0 0 1 -0.034 -0.25c-0.776 -4.514 6.08 -18.69 8.26 -22.756a173.6 173.6 0 0 1 18.32 -27.104c3.4 -4.22 6.964 -8.292 10.48 -12.414 7.184 -7.76 14.34 -21.7 6.86 -25.88a10.498 10.498 0 0 0 -4.274 -1.152c5.858 -1.014 15.112 -2.486 21.476 -3.29 1.8 -0.226 4.272 -0.932 5.872 0.128 1.836 1.214 2.044 3.898 1.892 5.876 -0.372 4.856 -3.36 9.21 -6.152 13.026 -6.546 8.942 -17.484 19.722 -25.688 30.2 -5.096 6.502 -10 13.642 -12.2 21.708 -0.224 0.82 -0.4 1.646 -0.56 2.482 -6.824 5.334 -15.724 14.138 -18.986 20.67z" fill="#000000" stroke-width="1"></path><path d="M389.2 283.894c-2.114 -4.716 -7.486 -5.834 -12.124 -6.526 -9.98 -1.304 -18.294 0.284 -28.13 3.216 -7.438 2.216 -7.486 2.652 -9 2.494 -3.2 -0.586 -1.32 -4.038 -0.02 -5.484 1.25 -1.282 13.15 -11.826 14.438 -12.948a76.788 76.788 0 0 0 6.488 -6c11.56 -12.66 3.486 -26.782 -10.2 -25.026a56.33 56.33 0 0 0 -16.652 7.022 24.8 24.8 0 0 0 -3.498 2.302 0.718 0.718 0 0 0 0.724 1.24c0.858 -0.646 1.748 -1.252 2.658 -1.83a10.7 10.7 0 0 1 7.754 -1.616c7 1.484 8.63 9.532 5.2 15.586a30.022 30.022 0 0 1 -6.326 7.79c-23.296 22.028 -27.274 22.966 -28.154 26.928 -1.834 8.218 11.688 6.38 16 5.384 4.014 -0.932 7.89 -2.346 11.876 -3.376 11.18 -2.85 39.346 -6.772 40.48 5.568a0.728 0.728 0 0 0 1.226 0.508c1.564 -1.6 3.2 -3.104 4.914 -4.548a9.174 9.174 0 0 0 2.346 -10.684zm-1.51 7.416c-1.042 1.932 -1.842 1.978 -5.826 5.886 -3.62 -12.904 -32.726 -8.248 -45.646 -4.502 -5.434 1.896 -18.39 5.528 -22.182 1.2 -2.65 -4.336 4.84 -7.278 27.584 -28.842 4.678 -4.436 9.356 -10.424 8.248 -17.316a10.014 10.014 0 0 0 -10.172 -8.6l2.526 -1.2c3.368 -1.52 7.234 -3.266 11.014 -3 4.654 0.326 9.72 2.8 11.234 7.508 2.6 8.092 -4.2 15.442 -10.3 20.458 -16.776 14.532 -17.156 14.868 -17.476 18.374a3.758 3.758 0 0 0 4.76 3.162c4.954 -1.304 13.816 -5.322 27.118 -6.098 4.94 -0.216 12.254 0.418 16.764 3.018a7.766 7.766 0 0 1 2.348 9.952zm-52.836 -192.798c-3.456 -0.036 -6.912 0.088 -10.368 0.132a0.718 0.718 0 0 0 0 1.436l10.368 -0.13a0.72 0.72 0 0 0 0 -1.438zm-7.004 5.958c-0.902 -0.142 -1.294 1.242 -0.38 1.386a26.53 26.53 0 0 0 11.144 -0.576 0.72 0.72 0 0 0 -0.382 -1.386 24.722 24.722 0 0 1 -10.382 0.576zm1.796 14.464c-0.918 -0.098 -0.91 1.338 0 1.438a46.112 46.112 0 0 0 10.812 -0.102c0.906 -0.114 0.916 -1.552 0 -1.436a46.22 46.22 0 0 1 -10.812 0.1zm9.4 2.55a50.332 50.332 0 0 1 -9.376 0.426c-0.924 -0.042 -0.922 1.4 0 1.438a52.716 52.716 0 0 0 9.758 -0.478c0.914 -0.128 0.524 -1.512 -0.382 -1.386zm-21.768 24.46a28.124 28.124 0 0 0 6.978 -0.358c0.91 -0.158 0.524 -1.544 -0.382 -1.386a26.686 26.686 0 0 1 -6.6 0.308c-0.916 -0.07 -0.912 1.368 0.004 1.436zm-1.576 3.352h5.986a0.718 0.718 0 0 0 0 -1.436h-5.986a0.718 0.718 0 0 0 0 1.436zm-15.558 22.402a81.2 81.2 0 0 0 10.562 -1.668c0.902 -0.2 0.52 -1.6 -0.382 -1.386a78.138 78.138 0 0 1 -10.18 1.618c-0.914 0.084 -0.924 1.522 0 1.436zm8.588 -0.648 -9.162 3.238c-0.864 0.306 -0.494 1.694 0.382 1.384l9.162 -3.236c0.868 -0.306 0.486 -1.696 -0.382 -1.386zm45.644 6.58c2.114 0.924 4.102 -0.054 6.16 -0.65a17.378 17.378 0 0 1 6.976 -0.522c0.916 0.11 0.908 -1.326 0 -1.436a18.6 18.6 0 0 0 -6.234 0.286c-1.028 0.226 -2.01 0.586 -3.012 0.9a4.53 4.53 0 0 1 -3.164 0.182c-0.838 -0.368 -1.572 0.868 -0.726 1.24zm0.04 4.848q6.184 -0.45 12.362 -0.906c0.918 -0.068 0.926 -1.504 0 -1.438l-12.362 0.908c-0.916 0.066 -0.922 1.504 0 1.436zm-12.346 22.322a26.714 26.714 0 0 1 10.742 -2.904c0.92 -0.052 0.926 -1.488 0 -1.438a28.414 28.414 0 0 0 -11.466 3.104c-0.824 0.416 -0.098 1.658 0.724 1.238zm-0.608 2.43 9.528 -2.958c0.88 -0.272 0.504 -1.66 -0.382 -1.386l-9.526 2.96c-0.882 0.274 -0.506 1.66 0.38 1.384zm-17.534 19.318a35.978 35.978 0 0 1 9.332 -0.616c0.924 0.058 0.92 -1.378 0 -1.436a37.432 37.432 0 0 0 -9.714 0.666c-0.908 0.18 -0.522 1.564 0.382 1.386zm-0.84 4.608 8.344 -1.418c0.91 -0.154 0.526 -1.538 -0.382 -1.384l-8.342 1.416c-0.908 0.154 -0.524 1.54 0.38 1.386zM325.86 240a48.768 48.768 0 0 0 -11.658 5.828c-0.758 0.518 -0.04 1.764 0.726 1.242a47.332 47.332 0 0 1 11.314 -5.684c0.87 -0.304 0.496 -1.694 -0.382 -1.386z" fill="#000000" stroke-width="1"></path><path d="M350.644 244.756a34.71 34.71 0 0 1 9.354 -1.298 0.72 0.72 0 0 0 0 -1.438 33.184 33.184 0 0 0 -9.734 1.352 0.718 0.718 0 0 0 0.38 1.384zm7.788 4.948a25.574 25.574 0 0 1 -7.6 1.966c-0.91 0.092 -0.92 1.528 0 1.438a27.902 27.902 0 0 0 8.332 -2.164c0.836 -0.364 0.108 -1.602 -0.732 -1.24zm-35.544 36.034 8.332 -5.658c0.76 -0.516 0.044 -1.76 -0.724 -1.24l-8.334 5.658c-0.762 0.516 -0.042 1.76 0.726 1.24zm8.996 -2.538a44.47 44.47 0 0 0 -10.214 5.554c-0.74 0.54 -0.024 1.788 0.724 1.242a42.938 42.938 0 0 1 9.872 -5.4c0.854 -0.34 0.484 -1.73 -0.382 -1.396zm47.68 -3.186a66.732 66.732 0 0 1 -6.672 4.186c-0.81 0.446 -0.086 1.688 0.726 1.242a66.722 66.722 0 0 0 6.67 -4.188c0.748 -0.532 0.032 -1.778 -0.724 -1.24zm1.22 2.426q-2.546 1.86 -5.09 3.724c-0.74 0.54 -0.024 1.788 0.724 1.24l5.09 -3.722c0.74 -0.54 0.024 -1.788 -0.724 -1.242z" fill="#000000" stroke-width="1"></path><path d="M342.87 242.81c-5.346 -1.68 -10.466 2.488 -14.4 5.544a66.626 66.626 0 0 0 -11.08 10.7 59.664 59.664 0 0 0 -5.066 7.386 0.656 0.656 0 0 0 0.152 0.862 0.75 0.75 0 0 0 0.106 0.088 0.642 0.642 0 0 0 0.816 -0.04 0.538 0.538 0 0 0 0.054 -0.04 96.6 96.6 0 0 1 22.382 -19.252 78.882 78.882 0 0 1 7.2 -3.936 0.728 0.728 0 0 0 0.236 -1 0.75 0.75 0 0 0 -0.4 -0.312z" fill="#ff9f48" stroke-width="1"></path><path d="M142.782 187.038a5.436 5.436 0 0 1 0.476 3.24c-0.148 0.904 1.236 1.294 1.386 0.382a7.124 7.124 0 0 0 -0.622 -4.348c-0.4 -0.832 -1.642 -0.112 -1.24 0.726zm7.68 -0.56a0.72 0.72 0 0 0 1.386 -0.38 9.2 9.2 0 0 0 -2.148 -3.932c-0.624 -0.684 -1.638 0.334 -1.016 1.014a7.652 7.652 0 0 1 1.778 3.298zm3.902 -7.068a3.154 3.154 0 0 1 1.758 1.656c0.4 0.83 1.646 0.104 1.24 -0.726a4.618 4.618 0 0 0 -2.616 -2.316c-0.868 -0.322 -1.242 1.062 -0.382 1.386z" fill="#000000" stroke-width="1"></path><path d="M242.2 165.734a9.154 9.154 0 0 0 -1.75 -4.88 3.85 3.85 0 0 0 -1.2 -1.446 2.6 2.6 0 0 0 -2.178 -0.018q-18.4 5.16 -36.364 11.73a14.52 14.52 0 0 0 -0.6 -3.048 13.622 13.622 0 0 0 -5.908 -7.706 10.898 10.898 0 0 0 -9.156 -1.096c-1.878 0.624 -3.654 1.538 -5.496 2.262a41.702 41.702 0 0 1 -5.786 1.852 20.042 20.042 0 0 1 -12.814 -0.784 0.738 0.738 0 0 0 -1 0.292 0.688 0.688 0 0 0 -0.06 0.138 212.32 212.32 0 0 0 -3.3 8.6 15.154 15.154 0 0 0 -1.316 -1.106A13.454 13.454 0 0 0 151.8 168.6c-5.676 -2.064 -11.6 0.462 -16.65 3 -2.83 1.426 -5.614 2.93 -8.55 4.142a67.224 67.224 0 0 1 -8.922 2.968q-1.14 0.29 -2.29 0.546a6.258 6.258 0 0 0 -1.516 0.34 0.88 0.88 0 0 0 -0.362 0.316 10.4 10.4 0 0 0 -0.732 1.888c-0.294 0.8 -0.582 1.6 -0.856 2.4 -1.048 3.078 -1.94 6.2 -2.702 9.366a134.5 134.5 0 0 0 -3.488 21.55 0.708 0.708 0 0 0 0.712 0.704h0.196c10.53 -2.428 19.37 -8.82 27.336 -15.86 1.83 -1.618 3.614 -3.282 5.4 -4.944a19.31 19.31 0 0 0 1.248 5.488 12.898 12.898 0 0 0 1.428 3.178c0.778 1.058 1.92 0.67 2.836 0.034a7.702 7.702 0 0 0 3.142 -5.492 19.928 19.928 0 0 0 1.1 2.4c0.438 0.8 0.95 1.692 1.934 1.822a2.4 2.4 0 0 0 2.188 -1.302 21.714 21.714 0 0 0 1.972 -5.254c0.058 -0.248 0.122 -0.494 0.184 -0.742a4.638 4.638 0 0 0 1.088 2.638c2 2 4.29 -0.722 4.8 -2.62 0.262 -1.388 0.782 -9.302 0.8 -9.666a21.626 21.626 0 0 0 7.046 -0.842 32.2 32.2 0 0 0 11.2 -7.112 16.47 16.47 0 0 0 -0.47 3.304 14.538 14.538 0 0 0 -0.828 1.11 14.758 14.758 0 0 0 -2.516 10.876 52 52 0 0 1 -10.026 7.42 32.4 32.4 0 0 1 -11.958 4.256 0.734 0.734 0 0 0 -0.694 0.526c-0.454 3.256 -0.38 6.556 -0.838 9.81a0.736 0.736 0 0 0 0.538 0.888 0.812 0.812 0 0 0 0.156 0.02c5.882 0.324 11.628 1.818 17.492 2.32a36.844 36.844 0 0 0 8.68 -0.132 67.27 67.27 0 0 0 8.15 -1.756 209.986 209.986 0 0 0 32.6 -10.846c5.6 -2.4 11.268 -4.658 16.866 -7.08a0.556 0.556 0 0 0 0.358 -0.66l1.146 -13.336a5.9 5.9 0 0 1 0.15 -1.298c0.096 -0.294 0.28 -0.582 0.4 -0.868 0.304 -0.7 0.57 -1.416 0.8 -2.142a37.714 37.714 0 0 0 1.176 -4.78 35.572 35.572 0 0 0 0.676 -9.444zM159.486 195.864c-0.458 0.814 -1.53 1.728 -2.2 0.626a6.518 6.518 0 0 1 -0.6 -2.532l-0.518 -3.8c-0.11 -0.838 -1.372 -0.576 -1.4 0.2a26.982 26.982 0 0 1 -2.136 8.842c-0.216 0.514 -0.576 1.612 -1.152 1.8 -0.7 0.232 -1.262 -1.332 -1.506 -1.824a19.558 19.558 0 0 1 -1.76 -5.74c-0.122 -0.8 -1.426 -0.6 -1.412 0.2 0.056 2.864 0.2 6.368 -2.142 8.484a4.2 4.2 0 0 1 -0.788 0.576c-0.698 0.332 -0.81 -0.06 -1.07 -0.616a29.284 29.284 0 0 1 -1.084 -2.768 14.436 14.436 0 0 1 -0.882 -5.92c0.054 -0.66 -0.81 -0.894 -1.226 -0.506 -7.528 7.012 -15.242 14.224 -24.678 18.6a44.624 44.624 0 0 1 -7.678 2.718 134.686 134.686 0 0 1 2.546 -16.72 116.76 116.76 0 0 1 2.102 -8.436 74.086 74.086 0 0 1 2.746 -8.162 68.498 68.498 0 0 0 10.4 -2.988 96.2 96.2 0 0 0 9.91 -4.584 34.658 34.658 0 0 1 10.044 -3.844 12.026 12.026 0 0 1 9.244 2.056 15.748 15.748 0 0 1 5.686 8.2c1.306 4.266 0.336 8.508 0.2 12.854a6.982 6.982 0 0 1 -0.646 3.284zm9.498 -12.64a20 20 0 0 1 -6.918 0.878 18.02 18.02 0 0 0 -0.734 -4.762 19.042 19.042 0 0 0 -3.628 -6.54c1 -2.92 2.144 -5.8 3.284 -8.64 6.664 2.658 13.922 0.886 20.324 -1.8a33.372 33.372 0 0 1 5.258 -2.024 8.832 8.832 0 0 1 4.64 0.236 11.518 11.518 0 0 1 6.714 5.9 13.578 13.578 0 0 1 1.344 5.19 1081.788 1081.788 0 0 0 -13.742 5.262 13.7 13.7 0 0 0 -2.9 1.374q-0.576 0.412 -1.108 0.876a22.306 22.306 0 0 1 0.816 -3.446 0.662 0.662 0 0 0 -0.014 -0.468c0.328 -1.308 0.6 -3.2 -0.478 -4.156 -1.282 -1.138 -2.708 0.2 -3.31 1.334 -0.446 0.84 -0.892 1.674 -1.372 2.494a6.344 6.344 0 0 1 -1.684 2.322c-0.92 0.574 -1.464 -0.232 -1.54 -1.064a5.098 5.098 0 0 1 0.56 -2.768c0.4 -0.83 -0.842 -1.56 -1.24 -0.726a6.022 6.022 0 0 0 -0.492 4.67 2.3 2.3 0 0 0 3.542 1.054 5.52 5.52 0 0 0 1.552 -1.85q0.788 -1.296 1.506 -2.634c0.2 -0.372 1.104 -2.488 1.654 -1.534a4.438 4.438 0 0 1 -0.166 2.8v0.062c-3.624 3.018 -7.288 6.536 -11.868 7.96zm71.844 -15.106a39.51 39.51 0 0 1 -1.942 11.692 17.944 17.944 0 0 1 -0.956 2.374 9.974 9.974 0 0 0 -0.506 3.522c-0.234 2.676 -0.988 11.472 -0.988 11.472 -4.764 2.052 -9.584 3.964 -14.356 6 -5.188 2.218 -10.41 4.308 -15.748 6.142q-8.13 2.79 -16.456 4.94 -4.082 1.05 -8.21 1.93a33.45 33.45 0 0 1 -8.6 0.6c-6.254 -0.302 -12.372 -1.8 -18.6 -2.37 0.326 -2.836 0.346 -5.698 0.704 -8.528a31.85 31.85 0 0 0 10.682 -3.638 51.098 51.098 0 0 0 10.278 -7.054c0.36 -0.318 0.712 -0.644 1.06 -0.974 0.292 -0.28 0.734 -0.586 0.8 -1a6.9 6.9 0 0 0 -0.294 -1.7 7.822 7.822 0 0 1 -0.022 -1.934 16.364 16.364 0 0 1 1.944 -5.8 12.636 12.636 0 0 1 3.928 -4.392 17.038 17.038 0 0 1 3.33 -1.48q1.8 -0.72 3.618 -1.426 14.38 -5.6 29.074 -10.328 7.326 -2.36 14.724 -4.496c1.19 -0.342 2.378 -0.706 3.576 -1.014 0.944 -0.244 1.256 0.818 1.668 1.498a7.688 7.688 0 0 1 1.2 3.31 20.972 20.972 0 0 1 0.092 2.654zM97.862 92.664a11.948 11.948 0 0 0 -4.362 -0.688 0.72 0.72 0 0 0 0 1.438 10.788 10.788 0 0 1 3.98 0.636c0.872 0.308 1.248 -1.078 0.382 -1.386zm229.854 -21.962a22.724 22.724 0 0 1 16.886 2.246 40.72 40.72 0 0 1 13.254 12.286c2.062 2.81 3.928 5.754 5.76 8.716 0.486 0.784 1.728 0.062 1.242 -0.728 -6.508 -10.5 -14.484 -21.972 -27.518 -24.364a21.31 21.31 0 0 0 -10 0.46 0.718 0.718 0 0 0 0.382 1.384zm44.172 5.54a25.092 25.092 0 0 1 4.216 10.38c0.142 0.91 1.526 0.524 1.386 -0.382a28.6 28.6 0 0 0 -10.614 -17.446 45 45 0 0 0 -21.496 -8.918 100.644 100.644 0 0 0 -14.212 -1.126 0.718 0.718 0 0 0 0 1.436c14.814 0.26 31.604 2.978 40.72 16.056zM169.482 230.492c0.052 -0.478 0.1 -0.962 0.166 -1.44 0.02 -0.158 0.032 -0.314 0.054 -0.472 0.128 -0.904 -1.256 -1.296 -1.384 -0.382 -0.038 0.266 -0.06 0.536 -0.096 0.8 -0.062 0.474 -0.114 0.95 -0.166 1.426a65.054 65.054 0 0 0 -0.374 8.716c0.012 0.47 0.074 2.168 0.098 2.546 0.06 0.916 1.496 0.924 1.436 0 -0.026 -0.4 -0.028 -0.786 -0.046 -1.18 -0.022 -0.472 -0.044 -0.942 -0.058 -1.414a63.706 63.706 0 0 1 0.37 -8.6z" fill="#000000" stroke-width="1"></path><path d="M270.322 211.346c-2.524 19.612 -4.16 39.32 -6.09 59q-0.81 8.244 -1.72 16.48c-13.212 2.064 -25.128 9.012 -36.8 15.13 -12.8 6.71 -52.108 27.558 -59.014 31.16a654.656 654.656 0 0 1 -2.384 -66.018q0.14 -9.516 0.554 -19.02c0.04 -0.924 -1.4 -0.922 -1.438 0a654.292 654.292 0 0 0 1.874 85.562c-10.974 1.748 -22.1 0.116 -33 -1.34 -11.348 -1.514 -46.49 -6.478 -52.714 -7.466 -2.884 -22.044 -4.71 -42.776 -5.68 -63.428q-0.416 -9.056 -0.6 -18.122a0.72 0.72 0 0 0 -1.438 0 740.232 740.232 0 0 0 6.35 82.172c0.038 0.288 0.2 0.642 0.528 0.694 11.438 1.818 62.786 8.886 68.452 9.348a76.428 76.428 0 0 0 19.064 -0.548 0.87 0.87 0 0 0 0.108 -0.044l0.044 -0.016a0.692 0.692 0 0 0 0.16 -0.088c12.738 -6.63 69.4 -36.708 75.636 -39.678a75.078 75.078 0 0 1 21.154 -7 0.554 0.554 0 0 0 0.51 -0.6v-0.034c0 -0.022 0.016 -0.036 0.02 -0.06 2.2 -19.65 7.148 -70.4 7.872 -76.088 0.108 -0.912 -1.332 -0.902 -1.448 0.004zm-103.74 125.894H160.16a0.85 0.85 0 0 0 -0.552 0.234 0.918 0.918 0 0 0 -0.088 0.066l-0.024 0.036a0.81 0.81 0 0 0 -0.234 0.586c0 2.382 1.166 5.948 3.892 6.43a3.4 3.4 0 0 0 3.364 -1.822 9.09 9.09 0 0 0 0.962 -4.654 0.89 0.89 0 0 0 -0.898 -0.876zm-78.876 -8.088h-6.782l-0.08 0.02a0.588 0.588 0 0 0 -0.612 0.564c-0.414 2.736 1.454 5.692 4.094 5.6 2.58 -0.096 4.048 -2.738 4.098 -5.378a0.772 0.772 0 0 0 -0.718 -0.806zm171.16 -35.388 -5.8 0.42a0.69 0.69 0 0 0 -0.568 0.358 0.766 0.766 0 0 0 -0.15 0.36c-0.254 2.244 1.188 5.322 3.854 4.972 2.53 -0.334 3.386 -3.218 3.374 -5.4a0.722 0.722 0 0 0 -0.71 -0.71zM41.43 192.4a13.256 13.256 0 0 0 -1.38 -0.068c-11.268 -0.106 -16.98 14.858 -16.694 26.25 0.476 16.188 4.822 36.628 18.36 45.4 6.836 4.428 15.82 6.086 23.272 2.188 0.82 -0.43 0.092 -1.67 -0.726 -1.24 -6.33 3.312 -13.924 2.228 -20.012 -1.108a32.722 32.722 0 0 1 -14.148 -17.2c-5.6 -14.544 -9.2 -39.476 2.812 -50.266a10.978 10.978 0 0 1 7 -2.582 12.38 12.38 0 0 1 1.516 0.058c0.918 0.102 0.912 -1.338 0 -1.432zm7.734 86.838c-7.718 9.518 -15.38 19.084 -23.152 28.558a30.538 30.538 0 0 1 -5.71 5.704c-0.748 0.532 -0.03 1.778 0.726 1.24a28.018 28.018 0 0 0 5.052 -4.788c1.93 -2.276 3.776 -4.626 5.656 -6.942l18.444 -22.758c0.576 -0.712 -0.434 -1.734 -1.016 -1.014zm13.916 39.664c0.176 0.908 1.56 0.524 1.386 -0.38a348.58 348.58 0 0 1 -4.494 -30.096q-0.45 -4.368 -0.8 -8.744c-0.074 -0.916 -1.512 -0.922 -1.438 0 0.82 10.2 2.046 20.348 3.75 30.432q0.746 4.404 1.596 8.788zm-47.67 -5.144A5.14 5.14 0 0 0 10.6 316.2c-2.144 3.502 1.814 8.876 5.8 7.09a5.896 5.896 0 0 0 2.87 -5.49 4.296 4.296 0 0 0 -3.86 -4.042zm43.462 10.552a4.8 4.8 0 0 0 0.76 5.88 6.09 6.09 0 0 0 5.508 1.55 5.354 5.354 0 0 0 3.952 -4.942c0.39 -6.162 -7.418 -7.222 -10.22 -2.488z" fill="#000000" stroke-width="1"></path></svg>