<svg xmlns="http://www.w3.org/2000/svg" viewBox="0 0 400 400" id="Desk-Bike-1--Streamline-Barcelona.svg" height="400" width="400"><desc>DESK BIKE 1 Streamline Illustration: https://streamlinehq.com</desc><defs></defs><path d="M215.434 199.534c-2.06 -10.4 -6.964 -21.058 -16.252 -26.2 -6.318 -3.492 -13.822 -3.986 -21.04 -4.014 -20 -0.076 -40.888 3.2 -56.986 15.044 7.38 6.49 13.37 14.576 21.49 20.11C151.334 200 160.184 195.45 169.8 193.72s20.308 -0.25 27.664 6.2c6.152 5.386 9.04 13.2 10.422 21.428h10.176c-0.83 -7.282 -1.206 -14.632 -2.628 -21.814z" fill="#7d4ab4" stroke-width="1"></path><path d="M227.954 114.852c-1.632 -10.378 -9.964 -15.268 -17.6 -12.72 -20.334 6.76 -38.296 9.518 -51.482 21 -2.218 1.932 0.756 5.458 3.454 6.628a14.088 14.088 0 0 0 8.668 -0.028 125.814 125.814 0 0 0 23.704 -7.642 51.192 51.192 0 0 0 -1.872 3.532 9.224 9.224 0 0 0 -1.226 6.68c0.942 2.812 4.176 4.058 7.064 4.738a64.044 64.044 0 0 0 15.484 1.696c8.934 -0.114 11.566 -3.2 13.05 -10.73a37.912 37.912 0 0 0 0.756 -13.154z" fill="#ffceb6" stroke-width="1"></path><path d="M227 102.28c-7.616 -7.942 -20.084 -7.16 -29.688 -7.734 -2.656 -0.158 -12.646 -0.016 -14.33 0.914a2.122 2.122 0 0 0 -1.174 2.168 2.918 2.918 0 0 0 1.632 1.704 19.382 19.382 0 0 0 6.17 2.14 14.49 14.49 0 0 0 -3.016 0.092 1.32 1.32 0 0 0 -0.124 2.586A95.828 95.828 0 0 0 204.2 107c-1.462 0 -1.788 -0.04 -2.744 0.036 -2.374 0.182 -3.2 2.358 -0.23 3.438 7.862 2.848 14.954 0.77 23.246 1.706a4.6 4.6 0 0 0 5.146 -3.986 7.932 7.932 0 0 0 -2.618 -5.914z" fill="#b26ee6" stroke-width="1"></path><path d="M216.294 116.716a59.894 59.894 0 0 0 7.684 4.478c1.074 0.524 2.1 -1.366 1.022 -1.892a60.066 60.066 0 0 1 -7.686 -4.48c-0.416 -0.284 -1.072 0.028 -1.33 0.506a1.034 1.034 0 0 0 0.31 1.388zm1.644 13.604a5.774 5.774 0 0 0 8.328 0.75c0.526 -0.452 -0.236 -1.2 -0.76 -0.76a4.704 4.704 0 0 1 -6.8 -0.752c-0.434 -0.544 -1.19 0.222 -0.768 0.762z" fill="#000000" stroke-width="1"></path><path d="M225.07 122.33a6.96 6.96 0 0 0 1.106 6.546 1.536 1.536 0 0 0 1.6 0.264 2.3 2.3 0 0 0 0.924 -2.024 22.6 22.6 0 0 0 -0.292 -5.46z" fill="#ff9f48" stroke-width="1"></path><path d="M206.966 119.338a3.662 3.662 0 0 0 -4.14 -1.67 5.48 5.48 0 0 0 -3.546 3.634c-1.48 4.35 2.288 7.466 5.276 5.91 0.614 -0.322 0.07 -1.25 -0.542 -0.93a2.712 2.712 0 0 1 -3.2 -0.758 4.65 4.65 0 0 1 2.038 -6.736 2.6 2.6 0 0 1 3.2 1.092c0.314 0.608 1.244 0.066 0.914 -0.542z" fill="#000000" stroke-width="1"></path><path d="M126.656 295.818h-5.69a4.846 4.846 0 0 0 0 9.692h5.69a4.846 4.846 0 0 0 0 -9.692zm121.344 0h-5.68a4.846 4.846 0 0 0 0 9.692H248a4.846 4.846 0 1 0 0 -9.692zm29.084 -136.944h-63.416a4.846 4.846 0 1 0 0 9.69h28.548v49.616h-115.14c-0.052 -10.728 0.114 -10.412 -0.128 -11.27h20.354a4.846 4.846 0 1 0 0 -9.692H100.32a4.846 4.846 0 1 0 0 9.692h20.566c-0.2 0.716 -0.13 83.2 -0.13 83a3.17 3.17 0 0 0 3.16 3.16h121.46a3.17 3.17 0 0 0 3.16 -3.16V168.564h28.548a4.846 4.846 0 0 0 0 -9.69z" fill="#aceac7" stroke-width="1"></path><path d="M210.936 237.356a15.496 15.496 0 1 0 -3.554 29.916l2.326 13.466 -6.766 4a0.538 0.538 0 0 0 0.542 0.928l15.518 -9.186a0.538 0.538 0 0 0 -0.544 -0.926l-7.764 4.6 -2.254 -13.046a15.492 15.492 0 0 0 2.496 -29.752zm9.042 14.534a14.458 14.458 0 0 1 -11.72 14.16l-2.098 -12.152a2.104 2.104 0 1 0 -1.08 0.04q1.058 6.136 2.12 12.268a14.418 14.418 0 1 1 12.778 -14.316z" fill="#000000" stroke-width="1"></path><path d="M242.11 219.224q-5.466 0 -10.93 -0.064a29 29 0 0 0 -2.728 -2.146c-0.572 -0.4 -1.11 0.54 -0.542 0.928s1.084 0.784 1.6 1.2c-6.44 -0.068 -25.098 -0.252 -27.988 -0.254a33.172 33.172 0 0 0 -29.164 30.348 39.574 39.574 0 0 0 -0.086 2.726c0.498 12.766 -0.022 25.258 0.48 38.112 0.028 0.69 1.102 0.694 1.074 0 -0.386 -9.882 -0.16 -19.772 -0.274 -29.66 -0.09 -7.79 -1.3 -15.732 4.4 -25.172a32.264 32.264 0 0 1 23.212 -15.28c9.872 0 19.742 0.172 29.614 0.27a27.97 27.97 0 0 1 8.028 12.534c0.2 0.658 1.24 0.378 1.036 -0.286a29.078 29.078 0 0 0 -7.466 -12.232c0.224 0 6.708 0.048 9.728 0.05a0.538 0.538 0 0 0 0.006 -1.074z" fill="#000000" stroke-width="1"></path><path d="M225.324 257.6a20.488 20.488 0 0 0 -1.582 -16.702 0.538 0.538 0 0 0 -0.928 0.542 19.412 19.412 0 0 1 1.472 15.874c-0.226 0.66 0.812 0.944 1.038 0.286zm8.558 9.94a26.05 26.05 0 0 1 -11.22 12.422c-0.6 0.338 -0.064 1.266 0.542 0.93a26.976 26.976 0 0 0 11.6 -12.81c0.278 -0.628 -0.648 -1.178 -0.922 -0.542zm-0.282 -14.972a22.086 22.086 0 0 0 -0.882 -11.88c-0.234 -0.646 -1.274 -0.366 -1.036 0.284a21.044 21.044 0 0 1 0.882 11.308c-0.13 0.678 0.906 0.966 1.036 0.288zm48.134 -129.348a318.516 318.516 0 0 0 -14.62 31.8h-43.018a1.434 1.434 0 0 0 0 2.868h42.184c1.786 0 2.634 0.306 3.358 -1.522a312.094 312.094 0 0 1 14.562 -31.698c0.872 -1.632 -1.6 -3.08 -2.466 -1.448z" fill="#000000" stroke-width="1"></path><path d="M142.714 182.824c-3.824 -3.662 -7.026 -6.76 -5.43 -11.668 -9.47 0.494 -20.052 -3.156 -24.464 -11.468 -7.57 8.742 -13.25 19.35 -8.058 29.644 3.856 7.648 12.642 12.89 19.97 17.666 25.112 16.372 50.182 32.4 61.62 61.758l12.698 -6.514c-12.978 -30.414 -32.566 -56.612 -56.336 -79.418z" fill="#b26ee6" stroke-width="1"></path><path d="M200.2 262.218c-21.928 -51.648 -57.2 -79.076 -61.042 -84.894a6.076 6.076 0 0 1 -0.628 -6.474c0.142 -0.338 -0.012 -0.844 -0.464 -0.81 -9.8 0.748 -20.538 -2.872 -24.68 -11.576a0.538 0.538 0 0 0 -0.842 -0.108 48.88 48.88 0 0 0 -8.628 12.718 23.366 23.366 0 0 0 -1.688 14.452c3.2 13.6 18.58 18.938 43.258 36.718 17.616 12.694 32.384 27.18 40.072 47.4a0.548 0.548 0 0 0 0.8 0.322q6.834 -3.508 13.666 -7a0.554 0.554 0 0 0 0.176 -0.748zm-13.854 6.538c-15 -38.488 -55.87 -55.764 -73.22 -69.768 -7.904 -6.38 -12.22 -13.582 -9.568 -23.636a39.83 39.83 0 0 1 9.256 -15.664c4.412 8.306 15 11.96 24.464 11.468 -1.6 4.922 1.614 8.012 5.43 11.668 23.718 22.756 43.326 48.944 56.336 79.418l-12.692 6.514zm144.992 -126.582c-1.562 -0.072 -3 6.958 -1.158 7.57 1.2 0.4 1.918 -1 2.12 -2.706 0.1 -0.902 0.364 -4.804 -0.962 -4.864zm1.472 -1.55c0.282 -3.432 0.556 -8.768 2.236 -11.774a8.296 8.296 0 0 1 8.486 -4.558c5.956 1.342 10.232 13.242 0.32 12.236a13.51 13.51 0 0 0 -5.334 -0.07 11.06 11.06 0 0 0 -5.708 4.166zm-0.01 10.514a6.984 6.984 0 0 1 4.364 2.318 19.346 19.346 0 0 1 2.046 11.348 8.142 8.142 0 0 1 -3.952 5.816 5.364 5.364 0 0 1 -6.586 -1.2 6.504 6.504 0 0 1 -0.328 -6.284c1.5 -3.682 5.776 -7.602 4.456 -11.998zm-5.846 -4.794c-1.34 0.94 -2.986 1.866 -4.256 0.834a5.874 5.874 0 0 1 -1.976 -4.336 12.048 12.048 0 0 1 2.496 -7.418 2.612 2.612 0 0 1 2.846 -0.562 3.108 3.108 0 0 1 1.106 3.58 39.528 39.528 0 0 0 -1.27 3.838c-0.2 1.336 -0.278 3.838 1.054 4.064z" fill="#000000" stroke-width="1"></path><path d="M359.222 147.262c1.47 1.586 1.254 4.282 1.282 6.272 0.168 12.106 0.696 49.934 0.8 56.744a1.076 1.076 0 0 0 2.15 0c-0.89 -63.89 -0.468 -60.91 -1.918 -63.468a7.274 7.274 0 0 0 -6.466 -3.068 135.344 135.344 0 0 0 -20.884 0.412 1.104 1.104 0 0 0 -1.074 1.076 1.082 1.082 0 0 0 1.074 1.074 138.844 138.844 0 0 1 17.942 -0.546c2.766 0.096 5.69 -0.012 7.094 1.504z" fill="#ff9f48" stroke-width="1"></path><path d="M366.186 215.2c-1.428 -3.95 -5.81 -4.862 -8.892 0.376a36.238 36.238 0 0 0 -3.892 15.386c-1.728 19.74 -0.702 39.614 0.376 59.4 1.258 9.038 11.37 7.354 11.33 -0.652 1.704 -74.51 1.98 -72.018 1.078 -74.51z" fill="#ff9f48" stroke-width="1"></path><path d="m246.674 126.714 -2.97 9.474c-0.2 0.664 0.83 0.946 1.036 0.286l2.97 -9.472c0.208 -0.664 -0.83 -0.946 -1.036 -0.288zm9.832 5.942a47.8 47.8 0 0 0 -10.25 5.728c-0.552 0.4 -0.016 1.34 0.542 0.928a46.822 46.822 0 0 1 10 -5.62c0.626 -0.258 0.348 -1.292 -0.292 -1.036zm3.452 9.644a50.87 50.87 0 0 0 -11.52 -0.676c-0.688 0.038 -0.692 1.112 0 1.074a49.848 49.848 0 0 1 11.234 0.638c0.678 0.118 0.966 -0.918 0.286 -1.036zm-37.864 -20.612a1.37 1.37 0 1 0 1.37 1.368 1.368 1.368 0 0 0 -1.37 -1.368z" fill="#000000" stroke-width="1"></path><path d="M181.246 129.332a2.294 2.294 0 0 0 -0.188 3.71 2.11 2.11 0 1 0 0.188 -3.71zm-1.274 -3.026c-5.558 -4.106 -6.734 -11.57 -10.772 -16.946a19.958 19.958 0 0 0 -23.248 -6.118c-4.56 2 -8.15 5.642 -12.166 8.58 -9.64 7.058 -16.754 5.382 -22.874 -3.176 -3.684 -5.144 -6.284 -10.8 -12.4 -12.8a55.716 55.716 0 0 1 -9.512 7.9 21.142 21.142 0 0 1 2.694 6.17c7.732 2.372 11.882 10.154 17.5 15.31a16.972 16.972 0 0 0 11.5 5.104c10.342 -0.292 15.142 -12.182 24.086 -16.14a19.118 19.118 0 0 1 14.246 -0.14c9.212 3.424 12.416 10.612 15.88 13.642a4.736 4.736 0 0 0 4.782 0.944 1.362 1.362 0 0 0 0.284 -2.33z" fill="#7d4ab4" stroke-width="1"></path><path d="M291.762 162.338A6.316 6.316 0 0 0 302 165.644c2.06 -1.752 3.074 -5.098 5.728 -5.222 4.182 -0.19 6.862 7.484 11.784 6.056a6.568 6.568 0 0 0 3.36 -3.012c0.92 -1.356 2.294 -3.432 4.23 -2.914a0.538 0.538 0 0 0 0.286 -1.036 4.01 4.01 0 0 0 -3.818 1.298c-1.014 0.984 -1.618 2.28 -2.536 3.342a3.4 3.4 0 0 1 -4 1.124 11.352 11.352 0 0 1 -3.718 -2.85c-1.896 -1.908 -4.59 -4.03 -7.382 -2.61 -2.332 1.184 -3.054 4.072 -5.224 5.442a5.28 5.28 0 0 1 -7.918 -3.212 0.538 0.538 0 0 0 -1.03 0.288zm11.198 -10.038a4.62 4.62 0 0 1 5.354 -0.658c1.49 0.854 3 2.632 4.902 1.852 2.04 -0.836 2.544 -5.228 5.348 -2.288a8.174 8.174 0 0 0 2.184 1.972c2.144 1.04 3.298 -1.128 3.848 -1.674 0.2 -0.2 1.27 -0.864 1.352 -0.152 0.076 0.678 1.152 0.688 1.074 0a1.564 1.564 0 0 0 -1.82 -1.368c-1.1 0.146 -1.63 1.168 -2.332 1.884 -1.032 1.054 -2.136 0.16 -2.92 -0.716a5.6 5.6 0 0 0 -2.42 -1.932c-1.944 -0.566 -2.826 1.32 -3.834 2.546 -1.714 2.08 -3.336 -0.342 -5.158 -1.222a5.736 5.736 0 0 0 -6.338 1c-0.506 0.47 0.256 1.228 0.76 0.756zm0.474 -28.402a4.876 4.876 0 0 0 5.122 2.6c2.466 -0.414 3.786 -3.274 5.968 -1.954 1.544 0.932 2.842 2.898 4.904 2.116 1.85 -0.704 2.932 -3.27 4.522 -2.654 1.176 0.456 1.676 1.916 2.708 2.6a2.264 2.264 0 0 0 3.038 -0.08c0.438 -0.53 -0.318 -1.296 -0.76 -0.762 -0.736 0.896 -1.978 -0.2 -2.484 -0.828a5.184 5.184 0 0 0 -2.308 -2c-1.834 -0.54 -3.012 1.188 -4.24 2.2 -2.788 2.28 -3.8 -2.532 -7.02 -1.988 -2.186 0.366 -3.236 2.872 -5.942 2.252a3.752 3.752 0 0 1 -2.58 -2.042c-0.296 -0.628 -1.224 -0.082 -0.928 0.54z" fill="#000000" stroke-width="1"></path><path d="M198.874 285.3c9.436 -6.316 18.5 -11.668 28.212 -17.222a2.262 2.262 0 0 0 -0.732 -4.176 41.458 41.458 0 0 0 -34.136 9.82 2.26 2.26 0 0 0 -0.466 2.67l4.024 8.076a2.122 2.122 0 0 0 3.098 0.832z" fill="#59679c" stroke-width="1"></path><path d="M261.786 260.058c40.874 0.256 36.834 5.842 45.04 -1.2l10.28 -8.826c0.378 -0.322 0.052 -0.896 -0.378 -0.916l-37.664 -1.836a0.484 0.484 0 0 0 -0.506 0.582l-17.044 11.19a0.542 0.542 0 0 0 0.272 1.006zm53.57 -9.93 -7.958 6.83c-9.532 8.18 -2.578 2.502 -43.858 2.052l16.174 -10.618z" fill="#000000" stroke-width="1"></path><path d="M288.248 267.314a76.914 76.914 0 0 0 13.052 -0.3c6.972 -1.47 11.068 -8.248 16.73 -12.154 0.564 -0.388 0.028 -1.32 -0.544 -0.928a64.238 64.238 0 0 0 -7.282 6.414c-5.63 5.298 -8.424 5.988 -14.074 6a276.4 276.4 0 0 1 -34.628 -2.152c-0.684 -0.086 -0.678 1 0 1.076q13.316 1.662 26.746 2.044z" fill="#000000" stroke-width="1"></path><path d="M317.874 260.532c-14.92 10.366 -15.816 11.6 -19.214 11.68 -1.128 0.03 2.612 0.268 -36.488 -2.49 -0.69 -0.05 -0.686 1.026 0 1.076 0 0 31.686 2.368 35.574 2.484 4.332 0.13 5.948 -1.578 9.73 -4.2q5.47 -3.8 10.94 -7.612c0.564 -0.402 0.028 -1.334 -0.542 -0.938z" fill="#000000" stroke-width="1"></path><path d="M297.8 276.686c7.644 -0.13 12.224 -4.53 17.478 -10.062 0.474 -0.502 -0.284 -1.264 -0.762 -0.762 -9.55 10.066 -12.724 10 -21.8 9.6l-30.836 -1.338c-0.692 -0.03 -0.69 1.046 0 1.074 1.646 0.066 34.198 1.516 35.92 1.488z" fill="#000000" stroke-width="1"></path><path d="M303.742 281.628c2.08 -0.654 2.43 -1.244 14.19 -12.1 0.51 -0.47 -0.252 -1.23 -0.76 -0.762l-8.708 8.042c-3.628 3.354 -4.4 4.512 -9.334 3.944a256.702 256.702 0 0 0 -36.302 -2.12 0.538 0.538 0 0 0 0 1.076c27.852 -0.384 36.618 3.27 40.914 1.92z" fill="#000000" stroke-width="1"></path><path d="M298.452 288.314c6.23 0.514 9.172 1.116 14.292 -4.4 2.264 -2.446 4.386 -5.4 7.59 -6.672 0.636 -0.252 0.36 -1.292 -0.286 -1.036 -5.8 2.298 -8.222 9.328 -13.618 10.972 -2.57 0.784 -1.926 0.566 -42.53 -2.8 -0.688 -0.058 -0.684 1.016 0 1.074z" fill="#000000" stroke-width="1"></path><path d="M320.428 281.854c-3.66 3.412 -7.636 7.034 -12.516 8.166 -4.2 0.97 -14.366 -0.588 -43.36 0.56 -0.69 0.028 -0.694 1.102 0 1.074 39.2 -1.55 40.376 1.6 47.554 -2.054a41.182 41.182 0 0 0 9.082 -6.986c0.506 -0.474 -0.256 -1.232 -0.76 -0.76zm-23.846 -22.792c-0.462 0.512 0.296 1.276 0.76 0.762a99.132 99.132 0 0 1 8.946 -8.758c0.524 -0.454 -0.24 -1.212 -0.76 -0.762a100.484 100.484 0 0 0 -8.946 8.758zm-2.29 -0.05c-0.4 0.568 0.534 1.106 0.928 0.544a40 40 0 0 1 8.234 -8.64c0.544 -0.426 -0.222 -1.182 -0.76 -0.762a40.832 40.832 0 0 0 -8.402 8.858zm-2.48 -0.138q3.612 -4.05 7.228 -8.094c0.46 -0.516 -0.298 -1.278 -0.76 -0.762q-3.612 4.05 -7.228 8.096c-0.452 0.516 0.298 1.286 0.76 0.76zm-3.92 -0.762c-0.434 0.532 0.322 1.296 0.762 0.762a53.2 53.2 0 0 1 6.728 -6.862c0.528 -0.45 -0.234 -1.2 -0.76 -0.762a53.866 53.866 0 0 0 -6.73 6.862zm-1.37 -0.144a36.686 36.686 0 0 1 6.686 -7.494c0.528 -0.448 -0.236 -1.2 -0.76 -0.758a37.6 37.6 0 0 0 -6.854 7.71c-0.394 0.574 0.546 1.114 0.928 0.542zm-11.75 -0.332c-0.464 0.51 0.294 1.274 0.76 0.76a75.264 75.264 0 0 1 9 -8.4c0.542 -0.428 -0.222 -1.184 -0.76 -0.76a75.276 75.276 0 0 0 -9 8.4zm4.766 -7.394q-3.966 3.534 -7.932 7.076c-0.516 0.46 0.246 1.218 0.76 0.758l7.934 -7.074c0.516 -0.462 -0.246 -1.22 -0.762 -0.76zm-226.396 3.722 -30.488 3.516a0.576 0.576 0 0 0 -0.328 0.988 0.4 0.4 0 0 0 0.024 0.516 51.622 51.622 0 0 0 5.902 6.48 7.712 7.712 0 0 0 7.502 2.66c6.356 -0.668 26.178 -3.21 29.744 -3.71a0.54 0.54 0 0 0 0.32 -0.79 58.638 58.638 0 0 0 -5.356 -7.316c-2.662 -3.098 -3.716 -2.762 -7.32 -2.344zm5.868 2.324a47.032 47.032 0 0 1 5.44 7.2c-5.826 0.814 -23.56 3 -26.6 3.338 -3.754 0.418 -5.34 0.938 -8.112 -1.456a47.03 47.03 0 0 1 -6.438 -6.882c6.03 -0.694 30.448 -3.556 32.01 -3.686a3.8 3.8 0 0 1 3.7 1.486z" fill="#000000" stroke-width="1"></path><path d="M66.51 267.13a211.094 211.094 0 0 1 -28.58 5.7c-6 0.766 -6.57 0.8 -7.21 0.468 -0.512 -0.264 0.064 0.288 -9.12 -9.882 -0.466 -0.514 -1.224 0.248 -0.762 0.76l7 7.758c0.916 1.014 1.816 2.372 3.266 2.6 2.374 0.37 20.77 -2.312 35.686 -6.366a0.536 0.536 0 0 0 -0.28 -1.038z" fill="#000000" stroke-width="1"></path><path d="m67.578 275.476 -35.226 3.68c-1.382 0.144 -3.244 0.646 -4.366 -0.438 -0.448 -0.432 0.136 0.332 -6.292 -8.984 -0.4 -0.566 -1.322 -0.028 -0.93 0.542 8.076 11.704 5.8 10.564 14.22 9.68l32.6 -3.4c0.674 -0.076 0.68 -1.156 -0.006 -1.08z" fill="#000000" stroke-width="1"></path><path d="M25.786 285.764a4.324 4.324 0 0 0 3.87 0.868l36.436 -3.6c0.68 -0.068 0.688 -1.142 0 -1.074l-36.062 3.562c-2.18 0.214 -2.988 0.464 -4.106 -1.4a69.038 69.038 0 0 1 -3.532 -6.896c-0.28 -0.632 -1.2 -0.086 -0.926 0.542a46.8 46.8 0 0 0 4.32 7.998z" fill="#000000" stroke-width="1"></path><path d="M19.6 285.82c2.302 1.09 3.086 4.098 5.782 4.6a11.742 11.742 0 0 0 4.848 -0.7c11.87 -2.866 24.7 0.03 36.454 -4.148 0.648 -0.23 0.37 -1.27 -0.284 -1.038 -9.42 3.348 -19.662 2.086 -29.506 3.032 -9.7 0.928 -10.696 3.644 -13.778 0.09a9.812 9.812 0 0 0 -2.974 -2.76c-0.626 -0.296 -1.174 0.628 -0.542 0.924z" fill="#000000" stroke-width="1"></path><path d="M66.71 292.118c-15.728 -0.488 -36.254 5.838 -40.256 4.952 -1.77 -0.4 -2.91 -2.264 -4.022 -3.554l-3.888 -4.512c-0.452 -0.524 -1.21 0.24 -0.76 0.762 8.098 9.4 6.114 9.326 16.26 7.582 10.936 -1.888 21.494 -4.5 32.666 -4.156 0.69 0.022 0.69 -1.052 0 -1.074zm-5.154 -37.474c9.436 2.514 12.488 -1.148 22.176 -3.092 4.456 -0.89 8.826 -1.968 10.872 -6.178s0.97 -8.73 -0.348 -13.2c-1.342 -4.56 -3.072 -3.37 -7.678 -2.276l-12.826 3.04a0.542 0.542 0 0 0 0 1.036 8.926 8.926 0 0 1 5.69 13 0.536 0.536 0 0 0 -0.436 -0.104 4 4 0 0 1 -4.324 -2.43c-0.17 -0.44 -0.93 -0.576 -1.036 0 -0.508 2.756 -4.17 3.018 -6.132 4.264a7.174 7.174 0 0 0 -2.4 2.924c-0.666 1.236 -1.74 2.676 -3.016 2.1 -0.624 -0.294 -1.172 0.632 -0.542 0.916zm14.086 -21.056c4.066 -0.962 13.338 -3.162 13.908 -3.298 1.726 -0.4 2.684 -0.924 3.434 1.38 1.302 4.01 2.466 8.512 1 12.456 -1.558 4.166 -5.498 5.372 -9.82 6.248a57.584 57.584 0 0 0 -8.694 2.38c7.658 -4.738 8.558 -15.188 0.172 -19.166zm-7.75 16.136c1.972 -1.354 5.188 -1.654 6.4 -3.876a5.09 5.09 0 0 0 4.626 2.078 13.554 13.554 0 0 1 -7.6 5.548 19.6 19.6 0 0 1 -6.8 0.692c1.57 -1.228 1.77 -3.34 3.374 -4.442z" fill="#000000" stroke-width="1"></path><path d="M95.258 253.226c-16.476 -1.128 -23.02 6.8 -31.4 3.728 -0.652 -0.238 -0.932 0.8 -0.286 1.038 8.782 3.212 14.954 -4.848 31.694 -3.69 0.682 0.046 0.678 -1.03 -0.008 -1.076z" fill="#000000" stroke-width="1"></path><path d="M64.424 259.672c-0.672 -0.166 -0.958 0.87 -0.286 1.036 10.904 2.692 21.786 -8.132 31.878 -3.576 0.624 0.282 1.172 -0.644 0.542 -0.928 -10.842 -4.898 -21.374 6.122 -32.134 3.468zm18.204 1.45c-5.622 1.45 -8.11 4.056 -11.8 4.36 -0.684 0.056 -0.69 1.132 0 1.076 3.906 -0.324 6.544 -2.832 11.44 -4.224a27.2 27.2 0 0 1 12.636 -0.534c0.678 0.132 0.966 -0.904 0.288 -1.036a28.432 28.432 0 0 0 -12.564 0.358zm14.572 7.18 -26.876 3.812c-0.682 0.096 -0.4 1.132 0.286 1.036l26.874 -3.812c0.678 -0.098 0.386 -1.138 -0.284 -1.036zM70.136 276.4q12.418 -2.084 24.832 -4.176c0.682 -0.114 0.4 -1.15 -0.286 -1.034l-24.832 4.174c-0.68 0.108 -0.392 1.142 0.286 1.036zm25.962 3.414a233.4 233.4 0 0 1 -26.542 1.238 0.538 0.538 0 0 0 0 1.076 235.724 235.724 0 0 0 26.542 -1.238c0.68 -0.072 0.688 -1.148 0 -1.076zM34.4 219.288c5.6 4.526 6.326 12.074 5.72 19.244 -0.054 0.652 0.894 0.676 1.048 0.098 0.052 0.478 0.73 0.776 0.968 0.25 1.388 -3.084 2.884 -6.438 5.818 -8.358 3.024 -1.978 6.416 -0.81 8.728 -3.168a0.766 0.766 0 0 0 0.4 -0.672 13.4 13.4 0 0 0 -6.29 -17.628c-5.178 -2.55 -10.432 -0.52 -14.086 -3.234a0.558 0.558 0 0 0 -0.36 -0.516 12.478 12.478 0 0 0 -10.216 0.6c-3.446 1.812 -5.244 5.412 -8.334 7.64a6.612 6.612 0 0 1 -5.978 1.34c-0.656 -0.224 -0.938 0.814 -0.286 1.038 3.654 1.264 7.098 -1.324 9.44 -3.868 2.894 -3.144 4.55 -5.546 9 -6.336a11.318 11.318 0 0 1 5.682 0.488 0.442 0.442 0 0 0 0.17 0.29c3.622 2.82 8.412 1.522 12.546 2.748a12.4 12.4 0 0 1 7.616 17.304 7.108 7.108 0 0 1 -4.334 1.58c-5.8 0.832 -8.024 4.83 -10.44 10.2 0.512 -6.318 0.014 -13.42 -4.474 -18.32a13.662 13.662 0 0 0 -7.258 -4.254c-6.686 -1.322 -9.704 3.99 -14.8 3.454a3.918 3.918 0 0 1 -3.6 -3.08c-0.078 -0.68 -1.154 -0.688 -1.074 0a5.32 5.32 0 0 0 6.4 4.102c3.55 -0.498 6.378 -3.162 9.942 -3.56a11.09 11.09 0 0 1 8.052 2.618z" fill="#000000" stroke-width="1"></path><path d="M42.362 225.574c-0.68 0.078 -0.686 1.152 0 1.076a16.158 16.158 0 0 0 12.216 -8.108c0.336 -0.6 -0.6 -1.15 -0.928 -0.544a15.044 15.044 0 0 1 -11.288 7.576zm8.726 -11.086a16.37 16.37 0 0 1 -8.462 7.828c-0.634 0.254 -0.358 1.294 0.286 1.036a17.468 17.468 0 0 0 9.104 -8.322c0.31 -0.616 -0.616 -1.162 -0.928 -0.542zm-0.242 -2.688c-4.676 0.182 -7.226 5.02 -11.64 5.886 -0.68 0.134 -0.4 1.168 0.286 1.036 4.358 -0.856 7.232 -5.684 11.354 -5.846 0.69 -0.022 0.694 -1.096 0 -1.076zm-4.606 -1.416a20.482 20.482 0 0 0 -9.428 5.282c-0.494 0.486 0.266 1.246 0.76 0.76a19.4 19.4 0 0 1 8.954 -5 0.538 0.538 0 0 0 -0.286 -1.042zM202.354 170a0.538 0.538 0 0 0 -0.542 0.928 36.46 36.46 0 0 1 12.742 12.19c0.368 0.584 1.298 0.044 0.928 -0.542A37.6 37.6 0 0 0 202.354 170zm14.474 9.524q-4.426 -4.952 -8.84 -9.91c-0.462 -0.516 -1.22 0.246 -0.76 0.762l8.84 9.908c0.462 0.516 1.22 -0.246 0.76 -0.76zM183.4 205.342a41.974 41.974 0 0 0 -17.758 10.422c-0.494 0.488 0.268 1.246 0.758 0.762a40.828 40.828 0 0 1 17.286 -10.146 0.538 0.538 0 0 0 -0.286 -1.038zm-7.074 13.342a23.092 23.092 0 0 0 -7.69 6.62c-0.414 0.556 0.518 1.092 0.928 0.544a21.876 21.876 0 0 1 7.304 -6.236c0.612 -0.324 0.07 -1.252 -0.542 -0.928zm-10.864 29.962a0.538 0.538 0 0 0 -1.036 -0.286 23.472 23.472 0 0 0 1.738 16.84c0.314 0.614 1.242 0.072 0.928 -0.544a22.318 22.318 0 0 1 -1.63 -16.01zm187.958 43.296q-12.418 1.878 -24.836 3.764c-0.35 -0.362 -0.666 -0.092 -1.26 0.226s-0.148 1.068 0.414 0.984l25.968 -3.938c0.682 -0.104 0.392 -1.14 -0.286 -1.036zm29.808 11.346a198.358 198.358 0 0 0 -23.258 -10.672c-0.646 -0.246 -0.926 0.8 -0.286 1.038a196.126 196.126 0 0 1 23 10.562c0.61 0.328 1.154 -0.598 0.544 -0.928zm6.254 -11.088q-10.112 -0.382 -20.222 -0.752c-0.692 -0.024 -0.69 1.05 0 1.076l20.222 0.752c0.692 0.026 0.69 -1.048 0 -1.076zM346.2 232.476a36.182 36.182 0 0 1 10.548 0.6c0.676 0.14 0.964 -0.896 0.286 -1.038a37.16 37.16 0 0 0 -10.352 -0.664 32.17 32.17 0 0 1 -0.048 -6.74l10.92 0.368c0.692 0.024 0.692 -1.052 0 -1.076l-11.41 -0.382a0.552 0.552 0 0 0 -0.538 0.536 32.282 32.282 0 0 0 0.058 7.858c0.042 0.262 0.226 0.566 0.536 0.538zm10.4 7.09v3.8a0.538 0.538 0 0 0 1.074 0v-3.8a0.538 0.538 0 0 0 -1.074 0zm1.08 16.434v-3.8a0.538 0.538 0 0 0 -1.074 0v3.8a0.538 0.538 0 0 0 1.074 0zm0.014 9.902 -0.2 3.582c-0.04 0.692 1.036 0.688 1.076 0l0.2 -3.582c0.03 -0.702 -1.038 -0.688 -1.076 0z" fill="#000000" stroke-width="1"></path><path d="M228.232 140.4c-3.024 -1.908 -6.94 -1.4 -10.4 -0.554a65.764 65.764 0 0 0 -36.42 24l-1.014 -2.218a22.782 22.782 0 0 0 -8.178 16.2c3.186 4.23 7.562 5.084 11.316 2.8 12.6 -7.668 16.356 -24.276 28.2 -32.6a5.462 5.462 0 0 1 3.4 -1.292c2.2 0.154 3.712 2.6 5.906 2.736 2.844 0.184 5.492 -3.546 7.942 -2.094 1.464 0.868 1.502 2.932 1.8 4.722a0.964 0.964 0 0 0 1.912 -0.128c0.136 -4.478 -0.696 -9.196 -4.464 -11.572z" fill="#ffceb6" stroke-width="1"></path><path d="M182.026 160.4a251.902 251.902 0 0 0 -4.384 -26.29 16.37 16.37 0 0 0 -4.6 -7.186 13.784 13.784 0 0 0 -8.96 -6.864 19.254 19.254 0 0 0 -9.946 1.676 127.278 127.278 0 0 0 -40.666 24.676 2.452 2.452 0 0 1 -1.098 1.176 6.728 6.728 0 0 0 -0.018 1.678c2.314 8.182 10.328 16.822 18.102 18.61 10.274 2.364 20.944 -1.69 29.696 -6.464a53.6 53.6 0 0 1 -1.6 -8.026c-0.082 -0.654 1 -0.696 1.074 0 1.04 8.694 3.254 12.544 7.682 24.768a5.076 5.076 0 0 0 5.2 3.446c-1.508 -7.372 2.598 -16.616 9.518 -21.2z" fill="#ff9f48" stroke-width="1"></path></svg>